<svg version="1.1" id="illustration" xmlns="http://www.w3.org/2000/svg" xmlns:xlink="http://www.w3.org/1999/xlink" x="0px"
		y="0px" viewBox="0 0 2262.6 1172.5" enable-background="new 0 0 2262.6 1172.5" xml:space="preserve">
	<g id="Screens">
		<polyline fill="none" stroke="#000000" stroke-width="10" stroke-miterlimit="10" points="1075.9,721.8 820.7,721.8 820.7,344.4
			1285.2,344.4 1285.2,441.2 " />
		<rect x="1082" y="441.2" fill="none" stroke="#000000" stroke-width="10" stroke-miterlimit="10" width="483.9" height="367.7"/>
		<line fill="none" stroke="#000000" stroke-width="10" stroke-miterlimit="10" x1="820.3" y1="377.2" x2="1285.3" y2="377.2"/>
		<line fill="none" stroke="#000000" stroke-width="10" stroke-miterlimit="10" x1="1082.3" y1="474.2" x2="1566.3" y2="474.2"/>
		<polyline fill="none" stroke="#000000" stroke-width="10" stroke-miterlimit="10" points="843.4,404.4 854.7,415.6 843.4,426.9
			"/>
		<line fill="none" stroke="#000000" stroke-width="10" stroke-miterlimit="10" x1="843.3" y1="442.2" x2="867.3" y2="442.2"/>
		<line fill="none" stroke="#000000" stroke-width="10" stroke-miterlimit="10" x1="1160.3" y1="473.2" x2="1160.3" y2="809.2"/>
		<g>
			<line fill="none" stroke="#000000" stroke-width="10" stroke-miterlimit="10" x1="1197.3" y1="525.2" x2="1343.3" y2="525.2"/>
			<line fill="none" stroke="#000000" stroke-width="10" stroke-miterlimit="10" x1="1197.3" y1="587.2" x2="1343.3" y2="587.2"/>
			<line fill="none" stroke="#000000" stroke-width="10" stroke-miterlimit="10" x1="1197.3" y1="608.2" x2="1303.3" y2="608.2"/>
			<line fill="none" stroke="#000000" stroke-width="10" stroke-miterlimit="10" x1="1197.3" y1="669.2" x2="1303.3" y2="669.2"/>
			<line fill="none" stroke="#000000" stroke-width="10" stroke-miterlimit="10" x1="1197.3" y1="690.2" x2="1303.3" y2="690.2"/>
			<line fill="none" stroke="#000000" stroke-width="10" stroke-miterlimit="10" x1="1210.3" y1="628.2" x2="1316.3" y2="628.2"/>
			<line fill="none" stroke="#000000" stroke-width="10" stroke-miterlimit="10" x1="1223.3" y1="649.2" x2="1329.3" y2="649.2"/>
			<line fill="none" stroke="#000000" stroke-width="10" stroke-miterlimit="10" x1="1230.3" y1="546.2" x2="1376.3" y2="546.2"/>
			<line fill="none" stroke="#000000" stroke-width="10" stroke-miterlimit="10" x1="1263.3" y1="566.2" x2="1409.3" y2="566.2"/>
		</g>
	</g>
	<path id="linesGrey" fill="none" stroke="#D8D8D8" stroke-width="10" stroke-miterlimit="10" d="M759.3,743.2H400.8
		c-20.7,0-37.5-16.8-37.5-37.5v-588c0-20.7,16.8-37.5,37.5-37.5h1557c20.7,0,37.5,16.8,37.5,37.5v567c0,20.7-16.8,37.5-37.5,37.5h-78
		c-20.7,0-37.5-16.8-37.5-37.5v-192c0-20.7,16.8-37.5,37.5-37.5h243c20.7,0,37.5,16.8,37.5,37.5v396c0,20.7-16.8,37.5-37.5,37.5h-279
		c-20.7,0-37.5,16.8-37.5,37.5v9c0,20.7,16.8,37.5,37.5,37.5h0c20.7,0,37.5-16.8,37.5-37.5v-84c0-20.7-16.8-37.5-37.5-37.5h-100
		c-9.9,0-19.5,4-26.5,11l-71,71c-7,7-16.6,11-26.5,11h-373.9c-10,0-19.5,4-26.6,11l-99.5,99.9c-7,7.1-16.6,11-26.6,11H525.9
		c-10,0-19.5-4-26.5-11L274.3,830c-7-7-11-16.6-11-26.5v-76.7c0-20.7,16.8-37.5,37.5-37.5h178c20.7,0,37.5-16.8,37.5-37.5v-210
		c0-20.7,16.8-37.5,37.5-37.5h15c20.7,0,37.5,16.8,37.5,37.5v86c0,20.7-16.8,37.5-37.5,37.5h-363c-20.7,0-37.5-16.8-37.5-37.5v-281
		c0-20.7,16.8-37.5,37.5-37.5h1471.5"/>
	<circle id="circleRed_3_" fill="none" stroke="#E23737" stroke-width="10" stroke-miterlimit="10" cx="588" cy="209.2" r="18.3"/>
	<circle id="circleRed" fill="none" stroke="#E23737" stroke-width="10" stroke-miterlimit="10" cx="168" cy="473.2" r="18.3"/>
	<circle id="circleRed_1_" fill="none" stroke="#E23737" stroke-width="10" stroke-miterlimit="10" cx="1984.7" cy="166.9" r="30.9"/>
	<circle id="circleRed_2_" fill="none" stroke="#E23737" stroke-width="10" stroke-miterlimit="10" cx="651.3" cy="1066.2" r="26"/>
	<rect id="rectBlue" x="72" y="743" transform="matrix(0.7071 0.7071 -0.7071 0.7071 567.4927 158.0318)" fill="none" stroke="#1372E5" stroke-width="10" stroke-miterlimit="10" width="42" height="42"/>
	<rect id="rectBlue_1_" x="2121.2" y="625" fill="none" stroke="#1372E5" stroke-width="10" stroke-miterlimit="10" width="81" height="81"/>
	<g id="lineBlue">
		<polyline fill="none" stroke="#1372E5" stroke-width="10" stroke-miterlimit="10" points="1285.3,405.2 1499.3,405.2 1499.3,441.2
				"/>
		<path fill="none" stroke="#1372E5" stroke-width="10" stroke-miterlimit="10" d="M895.8,722.2v210c0,20.2-16.3,36.5-36.5,36.5h-361
			c-20.2,0-36.5-16.3-36.5-36.5v-50c0-20.2,16.3-36.5,36.5-36.5h911c20.2,0,36.5-16.3,36.5-36.5l0,0"/>
	</g>
	<path id="lineRed" fill="none" stroke="#E23737" stroke-width="10" stroke-miterlimit="10" d="M820.3,625.7h-135
		c-19.1,0-34.5-15.4-34.5-34.5v-281c0-19.1-15.4-34.5-34.5-34.5h-324c-19.1,0-34.5,15.4-34.5,34.5v0c0,19.1,15.4,34.5,34.5,34.5
		h407.8c9.1,0,17.9-3.6,24.3-10l44.2-43.9c6.5-6.4,15.2-10,24.3-10H1552c9.2,0,18,3.7,24.4,10.2l73.3,73.7
		c6.4,6.5,10.1,15.2,10.1,24.3v122.3c0,19.1,15.4,34.5,34.5,34.5h14c19.1,0,34.5,15.4,34.5,34.5v150c0,19.1-15.4,34.5-34.5,34.5h-57
		c-19.1,0-34.5-15.4-34.5-34.5v-47c0-19.1,15.4-34.5,34.5-34.5h111c19.1,0,34.5-15.4,34.5-34.5V358.6c0-9.2,3.6-18,10.1-24.4
		l153-152.5"/>
	<g id="ends">
		<line fill="none" stroke="#D8D8D8" stroke-width="10" stroke-miterlimit="10" x1="1675.3" y1="158.2" x2="1675.3" y2="245.2"/>
		<line fill="none" stroke="#D8D8D8" stroke-width="10" stroke-miterlimit="10" x1="760.3" y1="711.2" x2="760.3" y2="765.2"/>
	</g>
</svg>
