<?xml version="1.0" encoding="utf-8"?>
<!-- Generator: Adobe Illustrator 18.1.1, SVG Export Plug-In . SVG Version: 6.00 Build 0)  -->
<svg version="1.1" id="Capa_1" xmlns="http://www.w3.org/2000/svg" xmlns:xlink="http://www.w3.org/1999/xlink" x="0px" y="0px"
	 viewBox="0 0 1536.4 245" enable-background="new 0 0 1536.4 245" xml:space="preserve">
<path fill="#D7002B" d="M2.5,0v245h245v-49h-49h-49v-49l0,0V49h49v98h49V0H2.5z M100.5,98L100.5,98v49l0,0v49h-49v-49l0,0V98v0V49
	h49V98z"/>
<g>
	<path fill="#D7002B" d="M438.3,133.2c0,29.3-21.6,50.7-50.1,50.7c-28.6,0-50.1-21.4-50.1-50.7c0-29.5,21.6-50.7,50.1-50.7
		C416.8,82.5,438.3,103.7,438.3,133.2z M412.5,133.2c0-18.1-11.7-27.2-24.3-27.2s-24.3,9.1-24.3,27.2c0,17.9,11.7,27.2,24.3,27.2
		S412.5,151.3,412.5,133.2z"/>
	<path fill="#D7002B" d="M458.7,217.9V85.4h25.1v11.7c4.3-7.4,15-13.8,29.3-13.8c28,0,44.1,21.4,44.1,49.7
		c0,28.9-18.1,50.3-45.1,50.3c-13.2,0-22.9-5.2-27.6-11.7v46.2H458.7z M508.1,106.4c-13.2,0-23.9,9.9-23.9,26.8s10.7,27,23.9,27
		c13.2,0,23.7-9.9,23.7-27C531.8,116.3,521.3,106.4,508.1,106.4z"/>
	<path fill="#D7002B" d="M663.3,153.6c-4.9,16.5-20,30.3-43.5,30.3c-26.2,0-49.3-18.8-49.3-51.1c0-30.5,22.5-50.3,47-50.3
		c29.5,0,47.2,18.8,47.2,49.5c0,3.7-0.4,7.6-0.4,8h-68.4c0.6,12.6,11.3,21.8,24.1,21.8c12,0,18.6-6,21.8-14.6L663.3,153.6z
		 M639.2,122.4c-0.4-9.5-6.6-18.8-21.4-18.8c-13.4,0-20.8,10.1-21.4,18.8H639.2z"/>
	<path fill="#D7002B" d="M710.9,181H685V85.4h25.1v11.8c5.8-9.9,17.3-14.4,27.6-14.4c23.7,0,34.6,16.9,34.6,37.9V181h-25.8v-55.7
		c0-10.7-5.2-19-17.7-19c-11.3,0-17.9,8.7-17.9,19.8V181z"/>
	<path fill="#D7002B" d="M860.4,149.5c0.6,7.6,6.2,14.6,17.5,14.6c8.5,0,12.6-4.5,12.6-9.5c0-4.3-2.9-7.8-10.3-9.3l-12.6-2.9
		c-18.5-4.1-26.8-15.2-26.8-28.6c0-17.1,15.2-31.3,35.7-31.3c27.2,0,36.3,17.3,37.5,27.6l-21.6,4.9c-0.8-5.6-4.9-12.8-15.7-12.8
		c-6.8,0-12.2,4.1-12.2,9.5c0,4.7,3.5,7.6,8.7,8.5l13.6,2.9c18.8,3.9,28.4,15.3,28.4,29.3c0,15.5-12,31.5-37.1,31.5
		c-28.7,0-38.7-18.6-39.8-29.5L860.4,149.5z"/>
	<path fill="#D7002B" d="M1028.7,133.2c0,29.3-21.6,50.7-50.1,50.7c-28.6,0-50.1-21.4-50.1-50.7c0-29.5,21.6-50.7,50.1-50.7
		C1007.1,82.5,1028.7,103.7,1028.7,133.2z M1002.8,133.2c0-18.1-11.7-27.2-24.3-27.2c-12.6,0-24.3,9.1-24.3,27.2
		c0,17.9,11.7,27.2,24.3,27.2C991.2,160.4,1002.8,151.3,1002.8,133.2z"/>
	<path fill="#D7002B" d="M1110.4,170.7c-5.2,8.9-16.3,12.8-26.4,12.8c-23.1,0-36.3-16.9-36.3-37.7V85.4h25.8v55.2
		c0,10.7,5.4,19.2,17.5,19.2c11.5,0,18.1-7.8,18.1-18.8V85.4h25.8v78.3c0,7.4,0.6,14,1,17.3h-24.7
		C1110.8,179.1,1110.4,174.6,1110.4,170.7z"/>
	<path fill="#D7002B" d="M1220.8,111.1c-2.9-0.6-5.4-0.8-7.8-0.8c-13.2,0-24.7,6.4-24.7,27V181h-25.8V85.4h25.1v14.2
		c5.8-12.6,19-15,27.2-15c2.1,0,4.1,0.2,6,0.4V111.1z"/>
	<path fill="#D7002B" d="M1256.7,133.2c0,17.3,11.3,27,24.5,27s19.8-8.7,21.9-16.1l22.7,7.6c-4.3,15.9-19.2,32.2-44.7,32.2
		c-28.2,0-50.3-21.4-50.3-50.7c0-29.5,21.8-50.7,49.5-50.7c26,0,40.8,16.1,44.9,32.2l-23.1,7.8c-2.3-8-8.4-16.1-21.2-16.1
		C1267.8,106.4,1256.7,115.9,1256.7,133.2z"/>
	<path fill="#D7002B" d="M1429.6,153.6c-4.9,16.5-20,30.3-43.5,30.3c-26.2,0-49.3-18.8-49.3-51.1c0-30.5,22.5-50.3,47-50.3
		c29.5,0,47.2,18.8,47.2,49.5c0,3.7-0.4,7.6-0.4,8h-68.4c0.6,12.6,11.3,21.8,24.1,21.8c12,0,18.6-6,21.8-14.6L1429.6,153.6z
		 M1405.5,122.4c-0.4-9.5-6.6-18.8-21.4-18.8c-13.4,0-20.8,10.1-21.4,18.8H1405.5z"/>
	<path fill="#D7002B" d="M1465.3,147c9.9,0,17.9,8,17.9,17.7s-8,17.7-17.9,17.7c-9.7,0-17.7-8-17.7-17.7S1455.6,147,1465.3,147z"/>
</g>
</svg>
