<?xml version="1.0" encoding="utf-8"?>
<!-- Generator: Adobe Illustrator 18.1.1, SVG Export Plug-In . SVG Version: 6.00 Build 0)  -->
<svg version="1.1" id="Capa_1" xmlns="http://www.w3.org/2000/svg" xmlns:xlink="http://www.w3.org/1999/xlink" x="0px" y="0px"
	 viewBox="0 738.4 1542.2 523.2" enable-background="new 0 738.4 1542.2 523.2" xml:space="preserve">
<path fill="#D7002B" d="M0,795.9v408.2h408.2v-81.6h-81.6h-81.6v-81.6l0,0V877.5h81.6v163.3h81.6V795.9H0z M163.3,959.2L163.3,959.2
	v81.6l0,0v81.6H81.6v-81.6l0,0v-81.6l0,0v-81.6h81.6V959.2z"/>
<g enable-background="new    ">
	<path fill="#D7002B" d="M635.6,1008.8c0,24-17.6,41.5-41,41.5s-41-17.5-41-41.5c0-24.2,17.6-41.5,41-41.5S635.6,984.6,635.6,1008.8
		z M614.5,1008.8c0-14.8-9.5-22.3-19.9-22.3c-10.3,0-19.9,7.5-19.9,22.3c0,14.6,9.5,22.3,19.9,22.3
		C604.9,1031,614.5,1023.6,614.5,1008.8z"/>
	<path fill="#D7002B" d="M652.3,1078.1V969.7h20.5v9.5c3.5-6,12.2-11.3,24-11.3c22.9,0,36.1,17.5,36.1,40.7
		c0,23.7-14.8,41.2-36.9,41.2c-10.8,0-18.8-4.3-22.6-9.5v37.8H652.3z M692.7,986.8c-10.8,0-19.6,8.1-19.6,21.9
		c0,13.8,8.7,22.1,19.6,22.1s19.4-8.1,19.4-22.1C712.1,995,703.5,986.8,692.7,986.8z"/>
	<path fill="#D7002B" d="M819.7,1025.5c-4,13.5-16.4,24.8-35.6,24.8c-21.5,0-40.4-15.4-40.4-41.8c0-25,18.4-41.2,38.5-41.2
		c24.2,0,38.6,15.4,38.6,40.5c0,3-0.3,6.2-0.3,6.5h-56c0.5,10.3,9.2,17.8,19.7,17.8c9.9,0,15.3-4.9,17.8-11.9L819.7,1025.5z
		 M800,999.9c-0.3-7.8-5.4-15.4-17.5-15.4c-11,0-17,8.3-17.5,15.4H800z"/>
	<path fill="#D7002B" d="M858.6,1047.9h-21.1v-78.2H858v9.7c4.8-8.1,14.1-11.8,22.6-11.8c19.4,0,28.3,13.8,28.3,31v49.3h-21.1v-45.6
		c0-8.7-4.3-15.6-14.5-15.6c-9.2,0-14.6,7.2-14.6,16.2V1047.9z"/>
	<path fill="#D7002B" d="M981,1022.1c0.5,6.2,5.1,11.9,14.3,11.9c7,0,10.3-3.7,10.3-7.8c0-3.5-2.4-6.4-8.4-7.6l-10.3-2.4
		c-15.1-3.3-21.9-12.4-21.9-23.4c0-14,12.4-25.6,29.2-25.6c22.3,0,29.7,14.1,30.7,22.6l-17.6,4c-0.6-4.6-4-10.5-12.9-10.5
		c-5.6,0-10,3.3-10,7.8c0,3.8,2.9,6.2,7.2,7l11.1,2.4c15.4,3.2,23.2,12.6,23.2,24c0,12.7-9.9,25.8-30.4,25.8
		c-23.5,0-31.6-15.3-32.6-24.2L981,1022.1z"/>
	<path fill="#D7002B" d="M1118.6,1008.8c0,24-17.6,41.5-41,41.5c-23.4,0-41-17.5-41-41.5c0-24.2,17.6-41.5,41-41.5
		C1101,967.3,1118.6,984.6,1118.6,1008.8z M1097.5,1008.8c0-14.8-9.5-22.3-19.9-22.3c-10.3,0-19.9,7.5-19.9,22.3
		c0,14.6,9.5,22.3,19.9,22.3C1088,1031,1097.5,1023.6,1097.5,1008.8z"/>
	<path fill="#D7002B" d="M1185.6,1039.5c-4.3,7.3-13.4,10.5-21.6,10.5c-18.9,0-29.7-13.8-29.7-30.8v-49.4h21.1v45.1
		c0,8.7,4.5,15.7,14.3,15.7c9.4,0,14.8-6.4,14.8-15.4v-45.5h21.1v64.1c0,6,0.5,11.4,0.8,14.1h-20.2
		C1185.9,1046.3,1185.6,1042.6,1185.6,1039.5z"/>
	<path fill="#D7002B" d="M1275.8,990.7c-2.4-0.5-4.5-0.6-6.4-0.6c-10.8,0-20.2,5.2-20.2,22.1v35.8h-21.1v-78.2h20.5v11.6
		c4.8-10.3,15.6-12.2,22.3-12.2c1.7,0,3.3,0.2,4.9,0.3V990.7z"/>
	<path fill="#D7002B" d="M1305.2,1008.8c0,14.1,9.2,22.1,20,22.1s16.2-7.2,18-13.2l18.6,6.2c-3.5,13-15.7,26.4-36.6,26.4
		c-23,0-41.2-17.5-41.2-41.5c0-24.2,17.8-41.5,40.5-41.5c21.3,0,33.4,13.2,36.7,26.4l-18.9,6.4c-1.9-6.5-6.8-13.2-17.3-13.2
		C1314.3,986.8,1305.2,994.6,1305.2,1008.8z"/>
	<path fill="#D7002B" d="M1446.7,1025.5c-4,13.5-16.4,24.8-35.6,24.8c-21.5,0-40.4-15.4-40.4-41.8c0-25,18.4-41.2,38.5-41.2
		c24.2,0,38.6,15.4,38.6,40.5c0,3-0.3,6.2-0.3,6.5h-56c0.5,10.3,9.2,17.8,19.7,17.8c9.9,0,15.3-4.9,17.8-11.9L1446.7,1025.5z
		 M1427,999.9c-0.3-7.8-5.4-15.4-17.5-15.4c-11,0-17,8.3-17.5,15.4H1427z"/>
	<path fill="#D7002B" d="M1476,1020.1c8.1,0,14.6,6.5,14.6,14.5c0,7.9-6.5,14.5-14.6,14.5c-7.9,0-14.5-6.5-14.5-14.5
		C1461.5,1026.6,1468,1020.1,1476,1020.1z"/>
</g>
</svg>
